<svg width="24" height="25" viewBox="0 0 23.5 25" fill="none" xmlns="http://www.w3.org/2000/svg">
<path d="M0.530648 10.326C-0.531097 6.77224 -0.000742912 3.37303 4.50803 2.08663C5.65146 1.76037 7.39441 1.52463 8.57757 1.5062C12.8964 1.43882 21.8399 1.49207 22.0443 1.50825C22.1566 1.51725 21.7243 3.22373 20.967 4.35222C19.7282 6.19796 17.9634 7.06411 15.7338 7.17675C12.9884 7.31557 10.2352 7.34141 7.48532 7.34264C4.76279 7.34407 2.42682 8.16083 0.632348 10.2911C0.618637 10.3075 0.591743 10.3128 0.564974 10.318C0.553132 10.3204 0.541288 10.3227 0.530648 10.326Z" fill="#1E0D26"/>
<path d="M6.82826 9.47776L14.1115 9.49106V14.3803H6.82826V23.2958C3.05154 23.2629 0 20.1825 0 16.3868C0 12.591 3.05154 9.51076 6.82826 9.47776Z" fill="#1E0D26"/>
</svg>
